<svg xmlns="http://www.w3.org/2000/svg" width="800" height="430">
<rect width="100%" height="100%" fill="white"/>
<line x1="70" y1="360" x2="730" y2="360" stroke="black"/>
<line x1="70" y1="70" x2="70" y2="360" stroke="black"/>
<text x="18" y="215.0" transform="rotate(-90 18,215.0)" font-family="Arial" font-size="18">Seconds from trace start</text>
<text x="400.0" y="410" text-anchor="middle" font-family="Arial" font-size="18">Protected-write sessions</text>
<rect x="70" y="283.5" width="58" height="76.5" fill="#377eb8"/><text x="99" y="276.5" text-anchor="middle" font-family="Arial" font-size="14">23.7s</text><rect x="165" y="280.6" width="58" height="79.4" fill="#377eb8"/><text x="194" y="273.6" text-anchor="middle" font-family="Arial" font-size="14">24.6s</text><rect x="260" y="277.4" width="58" height="82.6" fill="#377eb8"/><text x="289" y="270.4" text-anchor="middle" font-family="Arial" font-size="14">25.6s</text><rect x="355" y="251.1" width="58" height="108.9" fill="#377eb8"/><text x="384" y="244.1" text-anchor="middle" font-family="Arial" font-size="14">33.8s</text><rect x="450" y="246.6" width="58" height="113.4" fill="#377eb8"/><text x="479" y="239.6" text-anchor="middle" font-family="Arial" font-size="14">35.1s</text><rect x="545" y="241.0" width="58" height="119.0" fill="#377eb8"/><text x="574" y="234.0" text-anchor="middle" font-family="Arial" font-size="14">36.9s</text><rect x="640" y="174.9" width="58" height="185.1" fill="#377eb8"/><text x="669" y="167.9" text-anchor="middle" font-family="Arial" font-size="14">57.4s</text><rect x="735" y="162.3" width="58" height="197.7" fill="#377eb8"/><text x="764" y="155.3" text-anchor="middle" font-family="Arial" font-size="14">61.3s</text><rect x="830" y="130.9" width="58" height="229.1" fill="#377eb8"/><text x="859" y="123.9" text-anchor="middle" font-family="Arial" font-size="14">71.0s</text><rect x="925" y="117.1" width="58" height="242.9" fill="#377eb8"/><text x="954" y="110.1" text-anchor="middle" font-family="Arial" font-size="14">75.3s</text><rect x="1020" y="113.0" width="58" height="247.0" fill="#377eb8"/><text x="1049" y="106.0" text-anchor="middle" font-family="Arial" font-size="14">76.6s</text><rect x="1115" y="96.4" width="58" height="263.6" fill="#377eb8"/><text x="1144" y="89.4" text-anchor="middle" font-family="Arial" font-size="14">81.7s</text>
</svg>